<svg width="55" height="54" viewBox="0 0 55 54" fill="none" xmlns="http://www.w3.org/2000/svg">
<circle cx="27.5" cy="27" r="27" fill="#2A9595" fill-opacity="0.09"/>
<g clip-path="url(#clip0_5_1605)">
<path d="M38.5 23H37.399C36.934 20.721 34.914 19 32.5 19H20.5C17.743 19 15.5 21.243 15.5 24V30C15.5 32.757 17.743 35 20.5 35H32.5C34.914 35 36.935 33.279 37.399 31H38.5C39.052 31 39.5 30.552 39.5 30V24C39.5 23.448 39.052 23 38.5 23ZM29.721 28.96L27.993 32.444C27.818 32.796 27.464 33 27.096 33C26.947 33 26.795 32.967 26.653 32.896C26.158 32.65 25.956 32.05 26.201 31.556L27.952 28.026L27.965 28.001H24.923C24.302 28.001 23.717 27.713 23.36 27.232C23.01 26.76 22.909 26.16 23.083 25.586C23.103 25.521 23.129 25.458 23.162 25.398L25.27 21.523C25.533 21.038 26.141 20.859 26.626 21.123C27.111 21.387 27.291 21.994 27.026 22.479L25.083 26.051L28.093 26.001C28.786 26.001 29.426 26.39 29.761 27.017C30.094 27.638 30.076 28.375 29.72 28.961L29.721 28.96Z" fill="#2A9595"/>
<path d="M38.5 23H37.399C36.934 20.721 34.914 19 32.5 19H20.5C17.743 19 15.5 21.243 15.5 24V30C15.5 32.757 17.743 35 20.5 35H32.5C34.914 35 36.935 33.279 37.399 31H38.5C39.052 31 39.5 30.552 39.5 30V24C39.5 23.448 39.052 23 38.5 23ZM29.721 28.96L27.993 32.444C27.818 32.796 27.464 33 27.096 33C26.947 33 26.795 32.967 26.653 32.896C26.158 32.65 25.956 32.05 26.201 31.556L27.952 28.026L27.965 28.001H24.923C24.302 28.001 23.717 27.713 23.36 27.232C23.01 26.76 22.909 26.16 23.083 25.586C23.103 25.521 23.129 25.458 23.162 25.398L25.27 21.523C25.533 21.038 26.141 20.859 26.626 21.123C27.111 21.387 27.291 21.994 27.026 22.479L25.083 26.051L28.093 26.001C28.786 26.001 29.426 26.39 29.761 27.017C30.094 27.638 30.076 28.375 29.72 28.961L29.721 28.96Z" fill="#2A9595"/>
</g>
<defs>
<clipPath id="clip0_5_1605">
<rect width="24" height="24" fill="white" transform="translate(15.5 15)"/>
</clipPath>
</defs>
</svg>
