<svg width="24" height="20" viewBox="0 0 24 20" fill="none" xmlns="http://www.w3.org/2000/svg">
<path d="M5.31537 18.5H4.03887C2.12987 18.5 0.588867 17.15 0.588867 15.5V4.5C0.588867 2.84 2.12987 1.5 4.03887 1.5H4.63687C4.49887 1.81 4.42987 2.15 4.42987 2.5V3H4.03887C3.08437 3 2.31387 3.67 2.31387 4.5V15.5C2.31387 16.32 3.08437 17 4.03887 17H4.48737C4.59087 17.57 4.88987 18.09 5.31537 18.5Z" fill="#010101"/>
<path d="M18.1149 2C17.6434 0.83 16.3669 0 14.8719 0H8.76543C7.27043 0 5.99393 0.83 5.52243 2C5.38443 2.31 5.31543 2.65 5.31543 3V17C5.31543 17.17 5.31543 17.34 5.37293 17.5C5.47643 18.07 5.77543 18.59 6.20093 19C6.83343 19.61 7.75343 20 8.76543 20H14.8719C15.8839 20 16.8039 19.61 17.4364 19C17.8619 18.59 18.1609 18.07 18.2644 17.5C18.3104 17.34 18.3219 17.17 18.3219 17V3C18.3219 2.65 18.2529 2.31 18.1149 2ZM16.5969 17C16.5969 17.18 16.5624 17.34 16.4934 17.5C16.2634 18.08 15.6194 18.5 14.8719 18.5H8.76543C8.02943 18.5 7.38543 18.08 7.14393 17.5C7.07493 17.34 7.04043 17.18 7.04043 17V3C7.04043 2.61 7.21293 2.26 7.48893 2C7.79943 1.69 8.25943 1.5 8.76543 1.5H14.8719C15.3779 1.5 15.8379 1.69 16.1484 2C16.4244 2.26 16.5969 2.61 16.5969 3V17Z" fill="#010101"/>
<path d="M23.0603 4.5V15.5C23.0603 17.15 21.5078 18.5 19.6103 18.5H18.3223C18.7478 18.09 19.0468 17.57 19.1503 17H19.6103C20.5533 17 21.3353 16.32 21.3353 15.5V4.5C21.3353 3.67 20.5533 3 19.6103 3H19.2078V2.5C19.2078 2.15 19.1388 1.81 19.0008 1.5H19.6103C21.5078 1.5 23.0603 2.84 23.0603 4.5Z" fill="#010101"/>
</svg>
