<svg width="20" height="20" viewBox="0 0 20 20" fill="none" xmlns="http://www.w3.org/2000/svg">
<path d="M11 20C10.46 20 9.96 19.79 9.59 19.42L0.59 10.42C0.21 10.04 0 9.54 0 9V2C0 0.9 0.9 0 2 0H9C9.53 0 10.04 0.21 10.41 0.58L19.41 9.58C19.79 9.96 20 10.47 20 11C20 11.53 19.79 12.04 19.41 12.41L12.4 19.42C12.04 19.79 11.54 20 11 20ZM2 1.5C1.73 1.5 1.5 1.73 1.5 2V9C1.5 9.14 1.55 9.26 1.65 9.36L10.65 18.36C10.83 18.54 11.16 18.54 11.33 18.36L18.34 11.35C18.42 11.27 18.49 11.17 18.49 11C18.49 10.87 18.43 10.73 18.34 10.64L9.35 1.64C9.26 1.55 9.13 1.5 9 1.5H2ZM4.5 3C3.67 3 3 3.67 3 4.5C3 5.33 3.67 6 4.5 6C5.33 6 6 5.33 6 4.5C6 3.67 5.33 3 4.5 3Z" fill="#171C23"/>
</svg>
