<svg width="25" height="22" viewBox="0 0 25 22" fill="none" xmlns="http://www.w3.org/2000/svg">
<path d="M19.7246 0H5.72461C2.96761 0 0.724609 2.243 0.724609 5V17C0.724609 19.757 2.96761 22 5.72461 22H19.7246C22.4816 22 24.7246 19.757 24.7246 17V5C24.7246 2.243 22.4816 0 19.7246 0ZM22.7246 17C22.7246 18.654 21.3786 20 19.7246 20H5.72461C4.07061 20 2.72461 18.654 2.72461 17V5C2.72461 3.346 4.07061 2 5.72461 2H19.7246C21.3786 2 22.7246 3.346 22.7246 5V17ZM19.7246 6C19.7246 6.552 19.2766 7 18.7246 7H11.7246C11.1726 7 10.7246 6.552 10.7246 6C10.7246 5.448 11.1726 5 11.7246 5H18.7246C19.2766 5 19.7246 5.448 19.7246 6ZM8.72461 6C8.72461 6.828 8.05261 7.5 7.22461 7.5C6.39661 7.5 5.72461 6.828 5.72461 6C5.72461 5.172 6.39661 4.5 7.22461 4.5C8.05261 4.5 8.72461 5.172 8.72461 6ZM19.7246 11C19.7246 11.552 19.2766 12 18.7246 12H11.7246C11.1726 12 10.7246 11.552 10.7246 11C10.7246 10.448 11.1726 10 11.7246 10H18.7246C19.2766 10 19.7246 10.448 19.7246 11ZM8.72461 11C8.72461 11.828 8.05261 12.5 7.22461 12.5C6.39661 12.5 5.72461 11.828 5.72461 11C5.72461 10.172 6.39661 9.5 7.22461 9.5C8.05261 9.5 8.72461 10.172 8.72461 11ZM19.7246 16C19.7246 16.552 19.2766 17 18.7246 17H11.7246C11.1726 17 10.7246 16.552 10.7246 16C10.7246 15.448 11.1726 15 11.7246 15H18.7246C19.2766 15 19.7246 15.448 19.7246 16ZM8.72461 16C8.72461 16.828 8.05261 17.5 7.22461 17.5C6.39661 17.5 5.72461 16.828 5.72461 16C5.72461 15.172 6.39661 14.5 7.22461 14.5C8.05261 14.5 8.72461 15.172 8.72461 16Z" fill="#171C23"/>
</svg>
