<svg width="55" height="54" viewBox="0 0 55 54" fill="none" xmlns="http://www.w3.org/2000/svg">
<circle cx="27.833" cy="27" r="27" fill="#2A9595" fill-opacity="0.09"/>
<g clip-path="url(#clip0_5_1978)">
<path d="M38.3333 29H17.3333C17.454 28.6973 17.5953 28.4033 17.7563 28.12L19.8133 24.52C20.2515 23.7555 20.8836 23.12 21.6457 22.6775C22.4078 22.2351 23.2731 22.0014 24.1543 22H31.5123C32.3936 22.0012 33.2589 22.2348 34.0211 22.6773C34.7832 23.1197 35.4152 23.7553 35.8533 24.52L37.9103 28.12C38.0713 28.4033 38.2126 28.6973 38.3333 29ZM34.8333 31V32C34.8333 32.2652 34.728 32.5196 34.5404 32.7071C34.3529 32.8946 34.0985 33 33.8333 33C33.5681 33 33.3137 32.8946 33.1262 32.7071C32.9387 32.5196 32.8333 32.2652 32.8333 32V31H22.8333V32C22.8333 32.2652 22.7279 32.5196 22.5404 32.7071C22.3529 32.8946 22.0985 33 21.8333 33C21.5681 33 21.3137 32.8946 21.1262 32.7071C20.9387 32.5196 20.8333 32.2652 20.8333 32V31H16.8593C16.842 31.2 16.8333 31.398 16.8333 31.594V33C16.8335 33.7019 17.0184 34.3915 17.3695 34.9994C17.7205 35.6072 18.2254 36.112 18.8333 36.463V37C18.8333 37.5304 19.044 38.0391 19.4191 38.4142C19.7942 38.7893 20.3029 39 20.8333 39C21.3637 39 21.8724 38.7893 22.2475 38.4142C22.6226 38.0391 22.8333 37.5304 22.8333 37H32.8333C32.8333 37.5304 33.044 38.0391 33.4191 38.4142C33.7942 38.7893 34.3029 39 34.8333 39C35.3637 39 35.8724 38.7893 36.2475 38.4142C36.6226 38.0391 36.8333 37.5304 36.8333 37V36.463C37.4412 36.112 37.9461 35.6072 38.2971 34.9994C38.6482 34.3915 38.8331 33.7019 38.8333 33V31.594C38.8333 31.394 38.8246 31.196 38.8073 31H34.8333ZM38.8333 19H37.8333C37.5681 19 37.3137 18.8946 37.1262 18.7071C36.9387 18.5196 36.8333 18.2652 36.8333 18C36.8333 17.7348 36.9387 17.4804 37.1262 17.2929C37.3137 17.1053 37.5681 17 37.8333 17H38.8333C39.5063 17 39.4583 16.552 39.3263 16.351C39.0153 15.8917 38.5837 15.5271 38.0789 15.2973C37.5741 15.0675 37.0156 14.9814 36.4651 15.0485C35.9145 15.1156 35.3931 15.3333 34.9582 15.6776C34.5233 16.0219 34.1919 16.4795 34.0003 17H21.6783C21.4867 16.4795 21.1553 16.0219 20.7204 15.6776C20.2856 15.3333 19.7641 15.1156 19.2136 15.0485C18.663 14.9814 18.1046 15.0675 17.5997 15.2973C17.0949 15.5271 16.6633 15.8917 16.3523 16.351C15.8333 17.283 17.7593 16.939 17.8453 17C18.1105 17 18.3649 17.1053 18.5524 17.2929C18.7399 17.4804 18.8453 17.7348 18.8453 18C18.8453 18.2652 18.7399 18.5196 18.5524 18.7071C18.3649 18.8946 18.1105 19 17.8453 19H16.8453C16.1723 19 16.2203 19.448 16.3523 19.649C16.6633 20.1083 17.0949 20.4729 17.5997 20.7027C18.1046 20.9325 18.663 21.0185 19.2136 20.9515C19.7641 20.8844 20.2856 20.6667 20.7204 20.3224C21.1553 19.9781 21.4867 19.5205 21.6783 19H34.0003C34.1919 19.5205 34.5233 19.9781 34.9582 20.3224C35.3931 20.6667 35.9145 20.8844 36.4651 20.9515C37.0156 21.0185 37.5741 20.9325 38.0789 20.7027C38.5837 20.4729 39.0153 20.1083 39.3263 19.649C39.4583 19.448 39.5063 19 38.8333 19Z" fill="#2A9595"/>
</g>
<defs>
<clipPath id="clip0_5_1978">
<rect width="24" height="24" fill="white" transform="translate(15.833 15)"/>
</clipPath>
</defs>
</svg>
