<svg width="32" height="32" viewBox="0 0 32 32" fill="none" xmlns="http://www.w3.org/2000/svg">
<path d="M17.6002 11.1999C21.5426 11.1999 23.781 13.7167 24.1058 16.7583H24.205C26.7426 16.7583 28.8002 18.7375 28.8002 21.1791C28.8002 23.6208 26.7426 25.5999 24.205 25.5999H10.9954C8.4578 25.5999 6.4002 23.6208 6.4002 21.1791C6.4002 18.7375 8.4578 16.7583 10.9954 16.7583H11.0946C11.421 13.6959 13.6562 11.1999 17.6002 11.1999ZM17.6002 12.7999C14.9602 12.7999 12.661 14.8319 12.661 17.6399C12.661 18.0847 12.2546 18.4335 11.789 18.4335H10.909C9.3026 18.4319 8.0002 19.6799 8.0002 21.2159C8.0002 22.7519 9.3026 23.9999 10.909 23.9999H24.2914C25.8978 23.9999 27.2002 22.7519 27.2002 21.2159C27.2002 19.6799 25.8978 18.4319 24.2914 18.4319H23.4114C22.9458 18.4335 22.5394 18.0847 22.5394 17.6399C22.5394 14.7967 20.2386 12.7999 17.6002 12.7999ZM6.085 15.5199C6.14651 15.6973 6.14367 15.8907 6.07698 16.0662C6.01028 16.2417 5.88399 16.3882 5.7202 16.4799L5.589 16.5375L4.3074 16.9791C4.11827 17.0453 3.91118 17.0381 3.72711 16.959C3.54303 16.8798 3.39536 16.7344 3.31331 16.5516C3.23126 16.3688 3.2208 16.1619 3.28399 15.9717C3.34719 15.7816 3.47944 15.6221 3.6546 15.5247L3.7858 15.4671L5.069 15.0255C5.26951 14.9567 5.48913 14.9703 5.67963 15.0633C5.87012 15.1563 6.01592 15.3211 6.085 15.5215M14.2722 8.79995C14.805 9.05915 15.2722 9.39675 15.6706 9.79195C15.0199 9.92635 14.4141 10.1263 13.853 10.3919C13.1304 9.95699 12.2793 9.78588 11.4448 9.90772C10.6102 10.0296 9.84359 10.4368 9.27547 11.0602C8.70735 11.6836 8.37279 12.4846 8.32872 13.3269C8.28466 14.1692 8.53382 15.0007 9.0338 15.6799C8.5058 15.8367 8.0098 16.0655 7.5538 16.3519C6.93521 15.3884 6.64875 14.2489 6.73811 13.1073C6.82746 11.9658 7.28773 10.8847 8.04871 10.0291C8.80969 9.17354 9.82963 8.59029 10.953 8.36837C12.0763 8.14644 13.2414 8.298 14.2706 8.79995M4.6658 9.07195L4.8002 9.12315L6.0194 9.71675C6.19913 9.80412 6.33966 9.9556 6.41332 10.1414C6.48697 10.3272 6.48843 10.5338 6.41741 10.7206C6.34638 10.9074 6.20801 11.0608 6.02953 11.1507C5.85105 11.2406 5.64538 11.2605 5.453 11.2063L5.317 11.1551L4.0994 10.5615C3.91966 10.4742 3.77914 10.3227 3.70548 10.1369C3.63182 9.95114 3.63036 9.74453 3.70139 9.55773C3.77242 9.37093 3.91079 9.21748 4.08927 9.12758C4.26775 9.03767 4.47342 9.01783 4.6658 9.07195ZM15.9826 5.27195C16.1511 5.35414 16.2853 5.49287 16.3619 5.66394C16.4385 5.835 16.4526 6.02754 16.4018 6.20795L16.3506 6.34235L15.757 7.56155C15.6696 7.74128 15.5181 7.88181 15.3324 7.95547C15.1466 8.02912 14.94 8.03058 14.7532 7.95956C14.5664 7.88853 14.4129 7.75016 14.323 7.57168C14.2331 7.39319 14.2133 7.18753 14.2674 6.99515L14.3186 6.85915L14.9122 5.63995C14.9583 5.54526 15.0226 5.46061 15.1015 5.39084C15.1803 5.32107 15.2722 5.26755 15.3718 5.23336C15.4714 5.19917 15.5767 5.18498 15.6818 5.1916C15.7869 5.19823 15.8881 5.22553 15.9826 5.27195ZM9.9202 5.22075L9.9794 5.35195L10.421 6.63515C10.4859 6.82404 10.4778 7.03038 10.3983 7.2136C10.3188 7.39683 10.1736 7.54369 9.99135 7.62531C9.80906 7.70693 9.60283 7.71741 9.4132 7.65468C9.22357 7.59196 9.06427 7.46057 8.9666 7.28635L8.9074 7.15515L8.4674 5.87355C8.4035 5.6851 8.41212 5.47961 8.49158 5.29718C8.57104 5.11476 8.71564 4.96849 8.89714 4.88693C9.07864 4.80538 9.28402 4.79439 9.47319 4.85611C9.66235 4.91784 9.82173 5.04784 9.9202 5.22075Z" fill="black"/>
</svg>
