<svg width="25" height="25" viewBox="0 0 25 25" fill="none" xmlns="http://www.w3.org/2000/svg">
<path d="M20.5402 7.32006L14.7802 3.29006C13.2102 2.19006 10.8002 2.25006 9.29023 3.42006L4.28023 7.33006C3.28023 8.11006 2.49023 9.71006 2.49023 10.9701V17.8701C2.49023 20.4201 4.56023 22.5001 7.11023 22.5001H17.8902C20.4402 22.5001 22.5102 20.4301 22.5102 17.8801V11.1001C22.5102 9.75006 21.6402 8.09006 20.5402 7.32006ZM13.2502 18.5001C13.2502 18.9101 12.9102 19.2501 12.5002 19.2501C12.0902 19.2501 11.7502 18.9101 11.7502 18.5001V15.5001C11.7502 15.0901 12.0902 14.7501 12.5002 14.7501C12.9102 14.7501 13.2502 15.0901 13.2502 15.5001V18.5001Z" fill="white"/>
</svg>
