<svg width="55" height="54" viewBox="0 0 55 54" fill="none" xmlns="http://www.w3.org/2000/svg">
<circle cx="27.166" cy="27" r="27" fill="#2A9595" fill-opacity="0.09"/>
<path d="M19.166 15H22.166C24.3751 15 26.166 16.7909 26.166 19V22C26.166 24.2091 24.3751 26 22.166 26H19.166C16.9569 26 15.166 24.2092 15.166 22V19C15.166 16.7909 16.9569 15 19.166 15Z" fill="#2A9595"/>
<path d="M32.166 15H35.166C37.3751 15 39.166 16.7909 39.166 19V22C39.166 24.2091 37.3751 26 35.166 26H32.166C29.9569 26 28.166 24.2091 28.166 22V19C28.166 16.7909 29.9568 15 32.166 15Z" fill="#2A9595"/>
<path d="M19.166 28H22.166C24.3751 28 26.166 29.7909 26.166 32V35C26.166 37.2091 24.3751 39 22.166 39H19.166C16.9569 39 15.166 37.2092 15.166 35V32C15.166 29.7909 16.9569 28 19.166 28Z" fill="#2A9595"/>
<path d="M32.166 28H35.166C37.3751 28 39.166 29.7909 39.166 32V35C39.166 37.2092 37.3751 39 35.166 39H32.166C29.9569 39 28.166 37.2092 28.166 35V32C28.166 29.7909 29.9568 28 32.166 28Z" fill="#2A9595"/>
</svg>
