<svg width="55" height="55" viewBox="0 0 55 55" fill="none" xmlns="http://www.w3.org/2000/svg">
<circle cx="27.166" cy="27.5" r="27" fill="#2A9595" fill-opacity="0.09"/>
<g clip-path="url(#clip0_5_1972)">
<path d="M35.169 18.558C32.631 16.285 29.219 15.202 25.804 15.575C20.292 16.184 15.85 20.626 15.241 26.139C14.571 32.203 18.396 37.904 24.138 39.396C24.408 39.466 24.68 39.5 24.951 39.5C25.652 39.5 26.337 39.269 26.909 38.826C27.707 38.209 28.165 37.277 28.165 36.269V33.399C30.444 32.934 32.165 30.914 32.165 28.5V27.5C32.718 27.5 33.165 27.053 33.165 26.5C33.165 25.947 32.718 25.5 32.165 25.5H30.165V22.5C30.165 21.947 29.718 21.5 29.165 21.5C28.612 21.5 28.165 21.947 28.165 22.5V25.5H26.165V22.5C26.165 21.947 25.717 21.5 25.165 21.5C24.613 21.5 24.165 21.947 24.165 22.5V25.5H22.165C21.613 25.5 21.165 25.947 21.165 26.5C21.165 27.053 21.613 27.5 22.165 27.5V28.5C22.165 30.914 23.886 32.935 26.165 33.399V36.269C26.165 36.653 25.99 37.007 25.686 37.243C25.385 37.475 25.005 37.554 24.641 37.46C19.932 36.235 16.676 31.359 17.229 26.357C17.736 21.769 21.435 18.07 26.023 17.563C28.914 17.247 31.688 18.125 33.835 20.047C35.952 21.943 37.166 24.659 37.166 27.499C37.166 31.65 34.668 35.309 30.803 36.817C30.288 37.018 30.033 37.598 30.235 38.112C30.436 38.628 31.016 38.882 31.53 38.68C36.17 36.869 39.167 32.48 39.167 27.498C39.167 24.09 37.71 20.831 35.17 18.556L35.169 18.558Z" fill="#2A9595"/>
</g>
<defs>
<clipPath id="clip0_5_1972">
<rect width="24" height="24" fill="white" transform="translate(15.166 15.5)"/>
</clipPath>
</defs>
</svg>
