<svg width="25" height="24" viewBox="0 0 25 24" fill="none" xmlns="http://www.w3.org/2000/svg">
<g clip-path="url(#clip0_5_1964)">
<path d="M24.833 11V12H16.833V7.99997C16.833 6.89697 17.73 5.99997 18.833 5.99997H19.833C22.59 5.99997 24.833 8.24297 24.833 11ZM16.833 19H21.833C23.49 19 24.833 17.657 24.833 16V14H16.833V19ZM4.33301 -0.0510254H3.83301C3.28101 -0.0510254 2.83301 0.395975 2.83301 0.948975V6.44897C2.83301 6.72497 2.60901 6.94897 2.33301 6.94897H1.83301C1.28101 6.94897 0.833008 7.39697 0.833008 7.94897C0.833008 8.50097 1.28101 8.94897 1.83301 8.94897H2.33301C3.71401 8.94897 4.83301 7.82997 4.83301 6.44897V3.11097L12.241 12H3.33301C1.95201 12 0.833008 13.119 0.833008 14.5V16.5C0.833008 17.881 1.95201 19 3.33301 19H14.833V11.987L5.10101 0.308975C4.91101 0.0809746 4.63001 -0.0510254 4.33301 -0.0510254ZM3.89101 21C3.85701 21.162 3.83301 21.328 3.83301 21.5C3.83301 22.881 4.95201 24 6.33301 24C7.71401 24 8.83301 22.881 8.83301 21.5C8.83301 21.328 8.80901 21.162 8.77501 21H3.89101ZM16.891 21C16.857 21.162 16.833 21.328 16.833 21.5C16.833 22.881 17.952 24 19.333 24C20.714 24 21.833 22.881 21.833 21.5C21.833 21.328 21.809 21.162 21.775 21H16.89H16.891Z" fill="#2A9595"/>
</g>
<defs>
<clipPath id="clip0_5_1964">
<rect width="24" height="24" fill="white" transform="translate(0.833008)"/>
</clipPath>
</defs>
</svg>
