<svg width="55" height="54" viewBox="0 0 55 54" fill="none" xmlns="http://www.w3.org/2000/svg">
<circle cx="27.5" cy="27" r="27" fill="#2A9595" fill-opacity="0.09"/>
<g clip-path="url(#clip0_5_1983)">
<path d="M28 15C24.8185 15.0034 21.7682 16.2688 19.5185 18.5185C17.2688 20.7682 16.0034 23.8185 16 27C16.6 42.9 39.4 42.893 40 27C39.9966 23.8185 38.7312 20.7682 36.4815 18.5185C34.2318 16.2688 31.1815 15.0034 28 15ZM28 28C27.7156 28.0038 27.4324 28.0373 27.155 28.1C27.1292 27.5423 26.9767 26.9979 26.709 26.508C26.9583 26.414 27.1965 26.2926 27.419 26.146C27.6303 25.9972 27.8251 25.8263 28 25.636C28.3523 26.0275 28.7957 26.326 29.291 26.505C29.0233 26.9949 28.8708 27.5393 28.845 28.097C28.5675 28.0353 28.2843 28.0028 28 28ZM34.029 23.461L31.19 24.646C30.9476 24.7421 30.6855 24.7776 30.4263 24.7493C30.1671 24.721 29.9188 24.6298 29.7029 24.4836C29.487 24.3374 29.3101 24.1407 29.1876 23.9105C29.0651 23.6803 29.0007 23.4237 29 23.163V20.08C30.0379 20.2312 31.0286 20.6135 31.899 21.1986C32.7694 21.7838 33.4973 22.557 34.029 23.461ZM27 20.08V23.163C26.9995 23.4234 26.9354 23.6797 26.8134 23.9097C26.6914 24.1396 26.5151 24.3364 26.2998 24.4828C26.0845 24.6292 25.8367 24.7209 25.578 24.7499C25.3192 24.7788 25.0573 24.7442 24.815 24.649L21.956 23.485C22.4863 22.5744 23.2152 21.7953 24.0886 21.2057C24.962 20.6161 25.9572 20.2313 27 20.08ZM21.207 25.339L23.837 26.412C24.1391 26.5326 24.4095 26.7208 24.6275 26.9622C24.8455 27.2036 25.0052 27.4918 25.0944 27.8046C25.1837 28.1174 25.2 28.4464 25.1422 28.7665C25.0844 29.0866 24.954 29.3892 24.761 29.651L23.014 31.9C22.1796 31.0504 21.5757 30.0019 21.2595 28.8539C20.9433 27.7058 20.9253 26.496 21.207 25.339ZM24.607 33.117L26.4 30.8C26.5931 30.5599 26.8379 30.3664 27.116 30.2338C27.3941 30.1012 27.6985 30.0328 28.0066 30.0339C28.3148 30.035 28.6187 30.1054 28.8959 30.2399C29.1731 30.3744 29.4165 30.5696 29.608 30.811L31.388 33.121C30.3488 33.6925 29.182 33.9919 27.996 33.9912C26.81 33.9905 25.6435 33.6898 24.605 33.117H24.607ZM32.983 31.911L31.25 29.662C31.0536 29.3995 30.9205 29.0952 30.8611 28.7728C30.8017 28.4504 30.8177 28.1186 30.9077 27.8034C30.9978 27.4882 31.1594 27.1981 31.3801 26.9557C31.6008 26.7132 31.8746 26.5251 32.18 26.406L34.788 25.315C35.0761 26.4772 35.0612 27.6939 34.7449 28.8487C34.4285 30.0035 33.8212 31.0579 32.981 31.911H32.983Z" fill="#2A9595"/>
</g>
<defs>
<clipPath id="clip0_5_1983">
<rect width="24" height="24" fill="white" transform="translate(16 15)"/>
</clipPath>
</defs>
</svg>
